<svg id="Layer_1" data-name="Layer 1" xmlns="http://www.w3.org/2000/svg" viewBox="0 0 128.8 34">
	<title>hero</title>
	<rect x="9.9" y="24" width="108.8" height="2"/>
	<path d="M177.4,78H48.6V44H177.4V78ZM50.2,76H175.8V46H50.2V76Z" transform="translate(-48.6 -44)"/>
	<path d="M62.1,58.4l2-3.6h1.5l-2.8,4.6,2.9,4.7H64.2l-2.1-3.6L60,64.1H58.5l2.9-4.7-2.8-4.6h1.5Z" transform="translate(-48.6 -44)"/>
	<path d="M69.9,58.4l2-3.6h1.5l-2.8,4.6,2.9,4.7H72l-2.1-3.6-2.1,3.6H66.3l2.9-4.7-2.8-4.6h1.5Z" transform="translate(-48.6 -44)"/>
	<path d="M77.7,58.4l2-3.6h1.5l-2.8,4.6,2.9,4.7H79.8l-2-3.6-2.1,3.6H74.2l2.9-4.7-2.8-4.6h1.5Z" transform="translate(-48.6 -44)"/>
	<path d="M83.5,64.1V62.8h1.3v1.3H83.5Z" transform="translate(-48.6 -44)"/>
	<path d="M90.7,58.4l2-3.6h1.5l-2.8,4.6,2.9,4.7H92.8l-2.1-3.6-2.1,3.6H87.1L90,59.4l-2.8-4.6h1.5Z" transform="translate(-48.6 -44)"/>
	<path d="M98.5,58.4l2-3.6H102l-2.8,4.6,2.9,4.7h-1.5l-2.1-3.6-2.1,3.6H94.9l2.9-4.7L95,54.8h1.5Z" transform="translate(-48.6 -44)"/>
	<path d="M106.3,58.4l2-3.6h1.5L107,59.4l2.9,4.7h-1.5l-2-3.6-2.1,3.6h-1.5l2.9-4.7-2.8-4.6h1.5Z" transform="translate(-48.6 -44)"/>
	<path d="M119.3,58.4l2-3.6h1.5L120,59.4l2.9,4.7h-1.5l-2.1-3.6-2.1,3.6h-1.5l2.9-4.7-2.8-4.6h1.5Z" transform="translate(-48.6 -44)"/>
	<path d="M127.1,58.4l2-3.6h1.5l-2.8,4.6,2.9,4.7h-1.5l-2.1-3.6L125,64.1h-1.5l2.9-4.7-2.8-4.6h1.5Z" transform="translate(-48.6 -44)"/>
	<path d="M134.9,58.4l2-3.6h1.5l-2.8,4.6,2.9,4.7H137l-2.1-3.6-2.1,3.6h-1.5l2.9-4.7-2.8-4.6h1.5Z" transform="translate(-48.6 -44)"/>
	<path d="M112.2,64.1V62.8h1.3v1.3h-1.3Z" transform="translate(-48.6 -44)"/>
	<path d="M147.9,58.4l2-3.6h1.5l-2.8,4.6,2.9,4.7H150l-2.1-3.6-2.1,3.6h-1.5l2.9-4.7-2.8-4.6h1.5Z" transform="translate(-48.6 -44)"/>
	<path d="M155.7,58.4l2-3.6h1.5l-2.8,4.6,2.9,4.7h-1.5l-2.1-3.6-2.1,3.6h-1.5l2.9-4.7-2.8-4.6h1.5Z" transform="translate(-48.6 -44)"/>
	<path d="M163.5,58.4l2-3.6H167l-2.8,4.6,2.9,4.7h-1.5l-2.1-3.6-2.1,3.6h-1.5l2.9-4.7L160,54.8h1.5Z" transform="translate(-48.6 -44)"/>
	<path d="M140.8,64.1V62.8h1.3v1.3h-1.3Z" transform="translate(-48.6 -44)"/>
</svg>
